<svg xmlns="http://www.w3.org/2000/svg" width="500" height="500" style="shape-rendering:geometricPrecision;text-rendering:geometricPrecision;image-rendering:optimizeQuality;fill-rule:evenodd;clip-rule:evenodd"><path fill="#fefefe" d="M-.5-.5h500v500H-.5V-.5Z" style="opacity:1"/><path fill="#050505" d="M259.5 62.5c-.418.722-1.084 1.222-2 1.5 3.774 1.254 4.274 2.754 1.5 4.5l-.5 5.5c.462 2.54.462 4.873 0 7 2.378.975 2.044 1.641-1 2l3 1c-.971 1.041-1.971 1.874-3 2.5-26.944-29.471-59.278-37.305-97-23.5-34.206 17.553-50.539 45.72-49 84.5-30.143-.176-49.643 14.157-58.5 43-3.024 33.481 11.476 54.981 43.5 64.5 2.982.498 5.982.665 9 .5a5701.237 5701.237 0 0 0 151 1c.28 5.182.28 10.849 0 17-11.845-.328-23.512.005-35 1-.333 46.005 0 92.005 1 138 13.082 6.157 18.915 16.49 17.5 31-6.215 19.53-19.382 26.697-39.5 21.5-17.248-10.895-21.081-25.395-11.5-43.5 3.829-4.154 8.329-7.154 13.5-9v-139h-62c.167 19.003 0 38.003-.5 57-4.675 29.176-21.508 46.843-50.5 53-6.763 15.052-18.43 21.219-35 18.5-17.966-8.111-23.8-21.611-17.5-40.5 8.36-13.346 20.193-17.846 35.5-13.5 8.283 2.781 13.616 8.281 16 16.5 16.259-3.418 27.092-13.084 32.5-29 .495-1.973.662-3.973.5-6a784.68 784.68 0 0 0 1-56h-24c-40.714-7.58-62.047-32.08-64-73.5 2.14-33.808 19.14-56.474 51-68a34.026 34.026 0 0 1 8-1.5c4.805-39.467 25.139-67.634 61-84.5 38.269-14.506 73.269-9.006 105 16.5Z" style="opacity:1"/><path fill="#fdfdfd" d="M257.5 86.5a324.73 324.73 0 0 1 10 14.5c1 .667 2 .667 3 0a73.07 73.07 0 0 1 10-5.5c7.415-2.556 15.082-3.556 23-3 1.208.734 2.541 1.067 4 1 6.917 1.645 13.251 4.645 19 9a102.544 102.544 0 0 1 13.5 16c4.912-2.343 10.078-3.343 15.5-3 7.288 1.802 12.954 5.802 17 12 1.824 6.488 2.491 13.154 2 20h25c12.016 2.99 22.682 8.656 32 17a101.267 101.267 0 0 0 8 11c8.87 20.079 7.537 39.412-4 58-6.471 7.465-14.138 13.465-23 18a186.061 186.061 0 0 1-13 3.5c-16.997.5-33.997.667-51 .5h-243a40.913 40.913 0 0 1-9-.5c-32.024-9.519-46.524-31.019-43.5-64.5 8.857-28.843 28.357-43.176 58.5-43-1.539-38.78 14.794-66.947 49-84.5 37.722-13.805 70.056-5.971 97 23.5Z" style="opacity:1"/><path fill="#363d27" d="M285.5 75.5c2.982-.665 6.148-.998 9.5-1 5.734-.085 11.234.582 16.5 2 2.28 1.246 4.613 2.58 7 4-.333 2.845-1.333 5.345-3 7.5a8.435 8.435 0 0 0 4 .5v7a38.477 38.477 0 0 0-12-2c-1.459.067-2.792-.266-4-1-2.945-1.661-6.279-2.828-10-3.5l3-1c.278-3.632-.389-7.298-2-11a70.523 70.523 0 0 0-9-1.5Z" style="opacity:1"/><path fill="#262a1c" d="M285.5 75.5c3.022.304 6.022.804 9 1.5 1.611 3.702 2.278 7.368 2 11l-3 1c3.721.672 7.055 1.839 10 3.5-7.918-.556-15.585.444-23 3 .792-1.757 2.125-3.09 4-4a29.13 29.13 0 0 1-5-2.5c1.238.077 2.238-.09 3-.5-1.299-3.199-1.299-6.365 0-9.5a10.122 10.122 0 0 0-4-1.5c2.015-1.424 4.348-2.09 7-2Z" style="opacity:1"/><path fill="#454d33" d="M311.5 76.5c9.06 1.533 17.06 5.2 24 11a49.288 49.288 0 0 0-11-2 32.462 32.462 0 0 0 .5 8c.317-1.8.984-2.134 2-1l3-2c.497 2.646.664 5.313.5 8a8.435 8.435 0 0 0-4 .5c.098 1.285.098 2.451 0 3.5-5.749-4.355-12.083-7.355-19-9 4.13.034 8.13.701 12 2v-7a8.435 8.435 0 0 1-4-.5c1.667-2.155 2.667-4.655 3-7.5a221.663 221.663 0 0 0-7-4Z" style="opacity:1"/><path fill="#171a12" d="M259.5 62.5a74.772 74.772 0 0 1 14 15c1.595.934 3.261.934 5 0 1.422.209 2.755.709 4 1.5-1.299 3.135-1.299 6.301 0 9.5-.762.41-1.762.577-3 .5a29.13 29.13 0 0 0 5 2.5c-1.875.91-3.208 2.243-4 4a73.07 73.07 0 0 0-10 5.5c-1 .667-2 .667-3 0a324.73 324.73 0 0 0-10-14.5c1.029-.626 2.029-1.459 3-2.5l-3-1c3.044-.359 3.378-1.025 1-2 .462-2.127.462-4.46 0-7l.5-5.5c2.774-1.746 2.274-3.246-1.5-4.5.916-.278 1.582-.778 2-1.5Z" style="opacity:1"/><path fill="#535c3c" d="M335.5 87.5a39.32 39.32 0 0 1 11 10c1.542.663 3.209 1.33 5 2a4.457 4.457 0 0 1-2 1.5 68.441 68.441 0 0 1 4 10l-1 1 4 1c-.752.671-1.086 1.504-1 2.5-5.422-.343-10.588.657-15.5 3a102.544 102.544 0 0 0-13.5-16c.098-1.049.098-2.215 0-3.5a8.435 8.435 0 0 1 4-.5 32.462 32.462 0 0 0-.5-8l-3 2c-1.016-1.134-1.683-.8-2 1a32.462 32.462 0 0 1-.5-8c3.749.25 7.415.917 11 2Z" style="opacity:1"/><path fill="#69754d" d="M346.5 97.5c14.47-1.403 26.47 3.263 36 14-3.387-3.027-7.387-5.027-12-6 .514 2.198 1.514 4.198 3 6-1.689 5.319-2.022 10.652-1 16-4.046-6.198-9.712-10.198-17-12-.086-.996.248-1.829 1-2.5l-4-1 1-1a68.441 68.441 0 0 0-4-10 4.457 4.457 0 0 0 2-1.5 111.488 111.488 0 0 1-5-2Z" style="opacity:1"/><path fill="#778554" d="M382.5 111.5c5.102 4.871 8.102 10.871 9 18 2.885-.306 5.552.027 8 1h-12a77.1 77.1 0 0 1-1 13 18.453 18.453 0 0 1 6 .5 42.769 42.769 0 0 0-9 1.5c5.485.667 10.819 1.333 16 2h-25c.491-6.846-.176-13.512-2-20-1.022-5.348-.689-10.681 1-16-1.486-1.802-2.486-3.802-3-6 4.613.973 8.613 2.973 12 6Z" style="opacity:1"/><path fill="#0f0f0f" d="M287.5 121.5h24v31h-24v-31Z" style="opacity:1"/><path fill="#e7e7e7" d="M291.5 124.5h17v25h-17v-25Z" style="opacity:1"/><path fill="#020202" d="M294.5 128.5h10v3h-10v-3Z" style="opacity:1"/><path fill="#85955d" d="M399.5 130.5c5.394-.376 10.394.624 15 3-3.277-.284-6.443.049-9.5 1a82.6 82.6 0 0 1 1.5 8c-4.968.366-4.634.866 1 1.5l-8 1 1.5 1.5c1.049-1.017 2.216-1.184 3.5-.5-1.405 1.269-3.071 1.769-5 1.5a2298.005 2298.005 0 0 0-16-2 42.769 42.769 0 0 1 9-1.5 18.453 18.453 0 0 0-6-.5 77.1 77.1 0 0 0 1-13h12Z" style="opacity:1"/><path fill="#121212" d="M276.5 135.5h8v3h-7c.166 9.339 0 18.673-.5 28l-2.5 2.5a84.902 84.902 0 0 1-13 .5v-3c4.497.555 8.664-.111 12.5-2l1-27c.717-.544 1.217-1.211 1.5-2Z" style="opacity:1"/><path fill="#020202" d="M294.5 135.5h10v3h-10v-3ZM294.5 142.5h10v3h-10v-3Z" style="opacity:1"/><path fill="#95a76d" d="M414.5 133.5h1c.507 1.359 1.507 2.359 3 3-2.137 5.353-.303 9.019 5.5 11 1.163 3.327-.003 5.327-3.5 6 1.592 1.951 3.592 3.284 6 4 2.513 1.828 4.179 4.161 5 7-9.318-8.344-19.984-14.01-32-17 1.929.269 3.595-.231 5-1.5-1.284-.684-2.451-.517-3.5.5l-1.5-1.5 8-1c-5.634-.634-5.968-1.134-1-1.5a82.6 82.6 0 0 0-1.5-8c3.057-.951 6.223-1.284 9.5-1Z" style="opacity:1"/><path fill="#a1b472" d="M415.5 133.5c11.041 3.51 20.375 9.51 28 18a24.257 24.257 0 0 1-5.5-3c-2.445 3.189-2.612 6.356-.5 9.5-2.102 2.247-1.436 4.08 2 5.5.886.825 1.219 1.825 1 3h-4a52.174 52.174 0 0 0 3 9 101.267 101.267 0 0 1-8-11c-.821-2.839-2.487-5.172-5-7-2.408-.716-4.408-2.049-6-4 3.497-.673 4.663-2.673 3.5-6-5.803-1.981-7.637-5.647-5.5-11-1.493-.641-2.493-1.641-3-3Z" style="opacity:1"/><path fill="#101010" d="M207.5 147.5c14.337-.167 28.671 0 43 .5l2.5 2.5c.382 5.947 1.049 11.613 2 17 .71 1.473 1.876 2.14 3.5 2a25.879 25.879 0 0 1-1 10c-2.592 1.661-3.259 3.828-2 6.5l-1.5 1.5-1 12-1.5 1.5a248.574 248.574 0 0 1-44 1l-1.5-1.5c-.667-17-.667-34 0-51 .717-.544 1.217-1.211 1.5-2Z" style="opacity:1"/><path fill="#afafaf" d="M249.5 151.5a43.117 43.117 0 0 0-13 1c2.131.669 4.131 1.335 6 2h-7v-4c4.863-.319 9.53.014 14 1Z" style="opacity:1"/><path fill="#f7f7f7" d="M208.5 150.5h24v14h-24v-14Z" style="opacity:1"/><path fill="#f8f8f8" d="M249.5 151.5c.993 5.175-1.007 7.009-6 5.5-.752-.671-1.086-1.504-1-2.5a168.522 168.522 0 0 0-6-2 43.117 43.117 0 0 1 13-1Z" style="opacity:1"/><path fill="#0f0f0f" d="M221.5 154.5v6h-3v-6h3Z" style="opacity:1"/><path fill="#e3e3e3" d="M235.5 157.5c4.28 2.147 8.947 3.647 14 4.5a516.965 516.965 0 0 0 6 15.5h-3a36.627 36.627 0 0 1-4 10.5c-4.074.38-7.574 1.88-10.5 4.5a3.943 3.943 0 0 1-2-1 12.93 12.93 0 0 1-.5-5c8.65.685 13.317-3.315 14-12-1.217-7.876-5.883-11.876-14-12v-5Z" style="opacity:1"/><path fill="#1f1f1f" d="M187.5 237.5c-10.846.328-21.513-.006-32-1v-6a71.936 71.936 0 0 0-11 4 322.965 322.965 0 0 0-11-4l-2 4c.252-2.82-.248-5.486-1.5-8-.399.228-.565.562-.5 1h-1v-11c-.024-10.555-.69-10.555-2 0v5c-.934-1.068-1.268-2.401-1-4 .471-13.25 4.971-24.916 13.5-35a10.098 10.098 0 0 0 1.5-6c1.322.17 2.489-.163 3.5-1 .667-4 .667-8 0-12-10.589-3.804-15.756-11.471-15.5-23 .93-15.764 9.263-24.597 25-26.5 12.62-3.442 20.787 1.058 24.5 13.5 1.843 6.714 4.343 13.047 7.5 19h-4a98.432 98.432 0 0 1-.5 14 51.727 51.727 0 0 1-9.5 1.5 9.454 9.454 0 0 0-1.5 2.5c-1.517 5.58-1.851 11.247-1 17a6.547 6.547 0 0 0 3 3l1 4c14.182 8.988 20.682 21.988 19.5 39h-4c.313 3.542-.021 6.875-1 10Z" style="opacity:1"/><path fill="#f1f1f1" d="M157.5 157.5c2.668.334 4.668 1.667 6 4a190.774 190.774 0 0 0-4 13c-2.453-2.42-5.453-3.586-9-3.5a145.716 145.716 0 0 1 3-10c1.186-1.412 2.519-2.579 4-3.5Z" style="opacity:1"/><path fill="#9f9f9f" d="M144.5 148.5c2.193-1.297 4.527-1.297 7 0-2.359 1.214-4.692 1.214-7 0Z" style="opacity:1"/><path fill="#4a4a4a" d="m157.5 129.5 2 6c-.763 3.87-2.763 6.87-6 9 0-.667-.333-1-1-1v-1l1-2c1.25-.077 2.083-.744 2.5-2 .495-1.973.662-3.973.5-6 .904-.709 1.237-1.709 1-3Z" style="opacity:1"/><path fill="#f0f0f0" d="M150.5 115.5c5.693-.884 6.693.282 3 3.5-3.87.105-7.537.938-11 2.5a3.647 3.647 0 0 0 1 1.5c-2.863 1.364-4.863 3.53-6 6.5-4.682 1.737-6.182 5.07-4.5 10 1.443 5.163 4.61 7.33 9.5 6.5 1.141.741 1.141 1.575 0 2.5a4.457 4.457 0 0 0 2 1.5c5.581-.765 9.915 1.068 13 5.5-5.83 3.64-12.163 4.807-19 3.5-3.228-1.563-5.395-4.063-6.5-7.5-3.944-12.138-1.444-22.638 7.5-31.5a78.147 78.147 0 0 1 11-4.5Z" style="opacity:1"/><path fill="#dadada" d="M134.5 131.5c1.894 3.987 3.06 8.32 3.5 13-3.147-3.706-4.313-8.039-3.5-13Z" style="opacity:1"/><path fill="#191919" d="M156.5 132.5a18.453 18.453 0 0 1-.5 6c-.417 1.256-1.25 1.923-2.5 2l-1 2c-8.156.679-11.656-2.988-10.5-11 3.42-4.253 7.587-5.087 12.5-2.5a18.473 18.473 0 0 1 2 3.5Z" style="opacity:1"/><path fill="#d5d5d5" d="M153.5 140.5c-7.798 2.037-10.965-.963-9.5-9 2.971-3.592 6.304-3.925 10-1 2.009 3.45 1.842 6.783-.5 10Z" style="opacity:1"/><path fill="#212121" d="M147.5 130.5c5.305.741 6.639 3.241 4 7.5-6.298.495-7.632-2.005-4-7.5Z" style="opacity:1"/><path fill="#e9e9e9" d="M147.5 132.5c3.661-.15 4.661 1.35 3 4.5-3.793.487-4.793-1.013-3-4.5Z" style="opacity:1"/><path fill="#e7e7e7" d="M157.5 129.5c.237 1.291-.096 2.291-1 3a18.473 18.473 0 0 0-2-3.5c-4.913-2.587-9.08-1.753-12.5 2.5-1.156 8.012 2.344 11.679 10.5 11v1c-1.844.66-3.51 1.66-5 3-11.591-5.307-12.924-12.474-4-21.5 6.29-3.002 10.957-1.502 14 4.5Z" style="opacity:1"/><path fill="#828282" d="M147.5 120.5c1.929-.269 3.595.231 5 1.5a16.242 16.242 0 0 1-8 0c1.237-.232 2.237-.732 3-1.5Z" style="opacity:1"/><path fill="#f9f9f9" d="M153.5 144.5c3.237-2.13 5.237-5.13 6-9 .773-5.184-.727-9.517-4.5-13 .224-3.909 2.391-6.409 6.5-7.5 4.452-.86 7.952.64 10.5 4.5a89.514 89.514 0 0 1 9 22c3.654 2.771 3.154 4.105-1.5 4v14a128.507 128.507 0 0 1-16-.5 101.553 101.553 0 0 1-11.5-12.5c-.528-1.316-.028-1.983 1.5-2Z" style="opacity:1"/><path fill="#171717" d="M174.5 132.5c.934 1.068 1.268 2.401 1 4a18.453 18.453 0 0 1-6-.5c-1.098-.77-1.098-1.603 0-2.5 1.542-.801 3.208-1.134 5-1Z" style="opacity:1"/><path fill="silver" d="M171.5 133.5c.876-.131 1.543.202 2 1-2.308 1.373-2.975 1.04-2-1Z" style="opacity:1"/><path fill="#929292" d="m173.5 130.5 1 2c-1.792-.134-3.458.199-5 1v-1c1.014-1.174 2.347-1.84 4-2Z" style="opacity:1"/><path fill="#191919" d="M173.5 130.5c-1.653.16-2.986.826-4 2-2.342-.275-2.342-1.108 0-2.5 2.243-.797 3.577-.63 4 .5Z" style="opacity:1"/><path fill="#0f0f0f" d="M287.5 159.5h24v31h-24v-31Z" style="opacity:1"/><path fill="#656565" d="M212.5 154.5c.667 8 1.333 8 2 0 .968 2.107 1.302 4.441 1 7h-4c-.302-2.559.032-4.893 1-7Z" style="opacity:1"/><path d="M212.5 154.5h2c-.667 8-1.333 8-2 0Z" style="opacity:1"/><path fill="#7d7d7d" d="M221.5 154.5c.968 2.107 1.302 4.441 1 7-1.599.268-2.932-.066-4-1h3v-6Z" style="opacity:1"/><path fill="#eaeaea" d="M146.5 160.5c.997-.03 1.664.47 2 1.5a66.87 66.87 0 0 0-1.5 5.5c-1.807-2.206-1.974-4.539-.5-7Z" style="opacity:1"/><path fill="#e7e7e7" d="M291.5 162.5h17v25h-17v-25Z" style="opacity:1"/><path fill="#e2e2e2" d="M236.5 166.5c8.348.833 11.181 5.167 8.5 13-2.408 3.12-5.574 4.453-9.5 4v-4c7.064.025 8.731-2.975 5-9a6.846 6.846 0 0 0-4-1v-3Z" style="opacity:1"/><path fill="#020202" d="M294.5 166.5h10v3h-10v-3Z" style="opacity:1"/><path fill="#b4b4b4" d="M150.5 160.5c.441 4.654-.392 9.321-2.5 14a51.814 51.814 0 0 1 2.5-14Z" style="opacity:1"/><path fill="#f5f5f5" d="M209.5 167.5h23v14h-24a53.805 53.805 0 0 1 1-14Z" style="opacity:1"/><path fill="#e6e6e6" d="M167.5 161.5a2.428 2.428 0 0 1 2 .5c-3.009 6.59-3.676 13.423-2 20.5h-4a290.78 290.78 0 0 1 4-21Z" style="opacity:1"/><path fill="#b3b3b3" d="M164.5 161.5a2.428 2.428 0 0 1 2 .5c-6.694 26.031-7.361 25.864-2-.5Z" style="opacity:1"/><path fill="#e2e2e2" d="M236.5 173.5h3v3h-3v-3Z" style="opacity:1"/><path fill="#090909" d="M261.5 173.5h23v3h-23v-3Z" style="opacity:1"/><path fill="#020202" d="M294.5 173.5h10v3h-10v-3Z" style="opacity:1"/><path fill="#111" d="M361.5 172.5a192.719 192.719 0 0 1 24 11c6.39 21.888-.943 36.555-22 44-20.724-7.746-27.724-22.413-21-44a260.39 260.39 0 0 0 19-11Z" style="opacity:1"/><path fill="#ddd" d="M151.5 172.5c2.825-.419 4.991.581 6.5 3-.46 5.12-1.126 5.12-2 0-2.026-.415-3.526-1.415-4.5-3Z" style="opacity:1"/><path fill="#f8f8f8" d="M361.5 175.5a96.985 96.985 0 0 1 22.5 10c4.478 19.045-2.189 32.378-20 40-18.322-7.31-24.989-20.644-20-40a147.88 147.88 0 0 0 17.5-10Z" style="opacity:1"/><path fill="#dadada" d="M152.5 176.5c1.837.139 2.17.806 1 2-.798-.457-1.131-1.124-1-2Z" style="opacity:1"/><path fill="#ebebeb" d="M141.5 178.5a186.475 186.475 0 0 1 29 8l-1.5 1a1403.556 1403.556 0 0 0-25.5-5.5c-1.473-.71-2.14-1.876-2-3.5Z" style="opacity:1"/><path fill="#020202" d="M294.5 180.5h10v3h-10v-3Z" style="opacity:1"/><path fill="#121212" d="M261.5 180.5c4.93-.303 9.763.031 14.5 1a227.057 227.057 0 0 1 2 29c2.041.923 4.208 1.256 6.5 1v3c-3.507.506-6.674-.16-9.5-2l-1-28c-4.066-.964-8.233-1.297-12.5-1v-3Z" style="opacity:1"/><path fill="#fafafa" d="M159.5 224.5c.934-1.068 1.268-2.401 1-4 .898-9.783-.602-19.116-4.5-28-4.375-5.77-9.875-7.437-16.5-5a2.428 2.428 0 0 1-2-.5c1.277-1.786 2.944-2.952 5-3.5a1428.568 1428.568 0 0 1 30 6.5c13.285 8.405 19.285 20.572 18 36.5-9.354-2.15-16.354.85-21 9a36.875 36.875 0 0 1-12 1c-.589-4.471.077-8.471 2-12Z" style="opacity:1"/><path fill="#f3f3f3" d="M208.5 185.5h24v14c-7.674.166-15.341 0-23-.5-.967-4.401-1.3-8.901-1-13.5Z" style="opacity:1"/><path fill="#f7f7f7" d="M139.5 187.5c12.786-1.252 14.452 1.748 5 9l-2 19c-3.377 1.377-5.711 3.71-7 7-1.723 1.307-3.557 1.307-5.5 0-1.338-9.629-.338-18.962 3-28 1.694-2.858 3.861-5.191 6.5-7Z" style="opacity:1"/><path fill="#b8ce81" d="M450.5 159.5c8.883 12.351 13.216 26.184 13 41.5.831 16.451-3.836 30.951-14 43.5-1.267.587-2.267.587-3 0a102.63 102.63 0 0 0 1.5-13l1 1c.011-3.159.845-5.993 2.5-8.5-1.22-1.525-1.887-3.359-2-5.5l.5-5c2.251 5.441 3.418 5.107 3.5-1-2.921-8.404-2.587-16.57 1-24.5-1.812-3.922-2.479-8.089-2-12.5h-5c.953-3.802 2.62-7.302 5-10.5-.924-1.811-1.757-1.645-2.5.5-.49-2.045-.323-4.045.5-6Z" style="opacity:1"/><path fill="#0e0e0e" d="M218.5 189.5h3v6h-3v-6Z" style="opacity:1"/><path fill="#616161" d="M218.5 189.5c1.068-.934 2.401-1.268 4-1 .302 2.559-.032 4.893-1 7v-6h-3Z" style="opacity:1"/><path fill="#f9f9f9" d="M158.5 209.5v13c-3.129 1.544-5.295.544-6.5-3-.816-1.323-1.983-1.989-3.5-2-.672-.767-1.505-1.434-2.5-2-.667-6-.667-12 0-18 2.064-2.774 4.564-4.607 7.5-5.5 4.189 5.073 5.856 10.906 5 17.5Z" style="opacity:1"/><path fill="#353535" d="M211.5 188.5h4v7h-4v-7Z" style="opacity:1"/><path fill="#f7f7f7" d="M248.5 198.5h-12v-3a9.86 9.86 0 0 0 6-1c3.096-4.273 5.429-3.94 7 1-.02 1.226-.353 2.226-1 3Z" style="opacity:1"/><path fill="#1a1a1a" d="M371.5 192.5c1.855-.228 2.688.439 2.5 2a286.37 286.37 0 0 1-14.5 14 983.77 983.77 0 0 1-7-8c.865-1.083 1.865-1.249 3-.5a25.513 25.513 0 0 1 4 4.5 102.101 102.101 0 0 0 12-12Z" style="opacity:1"/><path fill="#090909" d="M288.5 197.5h23v30h-23v-30Z" style="opacity:1"/><path fill="#7d7d7d" d="M236.5 195.5v3h12c-4.134.985-8.468 1.318-13 1-.268-1.599.066-2.932 1-4Z" style="opacity:1"/><path fill="#eaeaea" d="M291.5 200.5h17v25h-17v-25Z" style="opacity:1"/><path fill="#4d4d4d" d="M288.5 197.5v30h23c-7.816.992-15.816 1.326-24 1-.328-10.514.006-20.847 1-31Z" style="opacity:1"/><path fill="#020202" d="M294.5 204.5h10v3h-10v-3Z" style="opacity:1"/><path fill="#7d7d7d" d="M128.5 216.5h-2c1.31-10.555 1.976-10.555 2 0Z" style="opacity:1"/><path fill="#020202" d="M294.5 211.5h10v3h-10v-3Z" style="opacity:1"/><path fill="#9e9e9e" d="m158.5 209.5 2 11c.268 1.599-.066 2.932-1 4 .172-.992-.162-1.658-1-2v-13Z" style="opacity:1"/><path fill="#343434" d="M139.5 187.5c6.625-2.437 12.125-.77 16.5 5 3.898 8.884 5.398 18.217 4.5 28l-2-11c.856-6.594-.811-12.427-5-17.5-2.936.893-5.436 2.726-7.5 5.5-.667 6-.667 12 0 18 .995.566 1.828 1.233 2.5 2-1.175-.219-2.175.114-3 1 5.717 3.024 6.384 6.858 2 11.5-6.334 1.329-9.168-1.171-8.5-7.5a13.015 13.015 0 0 1 4.5-4c-.865-1.083-1.865-1.249-3-.5-1.57 1.397-2.904 2.897-4 4.5h-1c1.289-3.29 3.623-5.623 7-7l2-19c9.452-7.252 7.786-10.252-5-9Z" style="opacity:1"/><path fill="#838383" d="M294.5 218.5c3.462-.982 7.129-1.315 11-1 .268 1.599-.066 2.932-1 4v-3h-10Z" style="opacity:1"/><path fill="#030303" d="M294.5 218.5h10v3h-10v-3Z" style="opacity:1"/><path fill="#e7e7e7" d="M126.5 216.5h2v11c-.722.418-1.222 1.084-1.5 2a32.462 32.462 0 0 1-.5-8v-5Z" style="opacity:1"/><path fill="#0b0b0b" d="M124.5 223.5c.823 3.477 1.323 7.144 1.5 11l1-4c.464.594.631 1.261.5 2v4h4c.667 0 1 .333 1 1h-8v-14Z" style="opacity:1"/><path fill="#e5e5e5" d="M132.5 224.5h3c-.214 1.644.12 3.144 1 4.5a8.43 8.43 0 0 1-4 .5v-5Z" style="opacity:1"/><path fill="#acc17a" d="m443.5 151.5 7 8c-.823 1.955-.99 3.955-.5 6 .743-2.145 1.576-2.311 2.5-.5-2.38 3.198-4.047 6.698-5 10.5h5c-.479 4.411.188 8.578 2 12.5-3.587 7.93-3.921 16.096-1 24.5-.082 6.107-1.249 6.441-3.5 1l-.5 5c.113 2.141.78 3.975 2 5.5-1.655 2.507-2.489 5.341-2.5 8.5l-1-1a102.63 102.63 0 0 1-1.5 13c.733.587 1.733.587 3 0-3 5-7 9-12 12h-4c-.149 3.623-1.316 3.957-3.5 1-1.997 1.879-4.164 2.212-6.5 1a12.403 12.403 0 0 1 4-2.5c-1.196-.654-1.196-1.154 0-1.5 1.698 1.181 3.365 1.181 5 0l-2-2c.928-1.268 1.095-2.601.5-4a19.887 19.887 0 0 1-3.5-4c1.189-.929 2.522-1.262 4-1-.118-4.258 1.549-5.425 5-3.5a14.506 14.506 0 0 1-4 5c1.914 2.777 3.58 2.277 5-1.5.825-.886 1.825-1.219 3-1-.333-3-2-4.667-5-5v-4c11.537-18.588 12.87-37.921 4-58a52.174 52.174 0 0 1-3-9h4c.219-1.175-.114-2.175-1-3-3.436-1.42-4.102-3.253-2-5.5-2.112-3.144-1.945-6.311.5-9.5a24.257 24.257 0 0 0 5.5 3Z" style="opacity:1"/><path fill="#5e5e5e" d="M125.5 217.5c-.268 1.599.066 2.932 1 4a32.462 32.462 0 0 0 .5 8c.278-.916.778-1.582 1.5-2h1c-.296 1.903-.963 3.57-2 5a2.428 2.428 0 0 0-.5-2l-1 4c-.177-3.856-.677-7.523-1.5-11-.295-2.235.039-4.235 1-6Z" style="opacity:1"/><path fill="#f3f3f3" d="M131.5 234.5v2h-4v-4c1.037-1.43 1.704-3.097 2-5-.065-.438.101-.772.5-1 1.252 2.514 1.752 5.18 1.5 8Z" style="opacity:1"/><path fill="#fafafa" d="M178.5 228.5h8v8a57.15 57.15 0 0 1-15-1c1.383-3.384 3.717-5.717 7-7Z" style="opacity:1"/><path fill="#fbfbfb" d="M133.5 230.5a322.965 322.965 0 0 1 11 4 71.936 71.936 0 0 1 11-4v6h-22v-6Z" style="opacity:1"/><path fill="#ddd" d="M148.5 217.5c2.546 2.425 4.046 5.425 4.5 9 .71-1.473 1.876-2.14 3.5-2v5c-1.951.273-3.451-.393-4.5-2-2.541 4.569-6.375 6.069-11.5 4.5-3.12-2.408-4.453-5.574-4-9.5 1.096-1.603 2.43-3.103 4-4.5 1.135-.749 2.135-.583 3 .5a13.015 13.015 0 0 0-4.5 4c-.668 6.329 2.166 8.829 8.5 7.5 4.384-4.642 3.717-8.476-2-11.5.825-.886 1.825-1.219 3-1Z" style="opacity:1"/><path fill="#f1f1f1" d="M142.5 220.5c6.143.526 7.476 3.36 4 8.5-4.35.645-6.517-1.188-6.5-5.5.698-1.191 1.531-2.191 2.5-3Z" style="opacity:1"/><path fill="#626262" d="M133.5 230.5v6c0 .667-.333 1-1 1 0-.667-.333-1-1-1v-2l2-4Z" style="opacity:1"/><path fill="#bdbdbd" d="M133.5 236.5h22c10.487.994 21.154 1.328 32 1-21 1.333-42 1.333-63 0h8c.667 0 1-.333 1-1Z" style="opacity:1"/><path fill="#9aac6e" d="M435.5 233.5v4c3 .333 4.667 2 5 5-1.175-.219-2.175.114-3 1-1.42 3.777-3.086 4.277-5 1.5a14.506 14.506 0 0 0 4-5c-3.451-1.925-5.118-.758-5 3.5-1.478-.262-2.811.071-4 1a19.887 19.887 0 0 0 3.5 4c.595 1.399.428 2.732-.5 4l2 2c-1.635 1.181-3.302 1.181-5 0-1.196.346-1.196.846 0 1.5a12.403 12.403 0 0 0-4 2.5c2.336 1.212 4.503.879 6.5-1 2.184 2.957 3.351 2.623 3.5-1h4c-5.378 6.023-12.044 10.023-20 12-3.105-.928-6.105-1.261-9-1-1.021-.502-1.188-1.168-.5-2a13.92 13.92 0 0 1 4-3c.798-1.759.631-3.426-.5-5l-6 2c-1.247-1.506-1.247-3.006 0-4.5 2.781-.522 5.115-1.689 7-3.5 8.862-4.535 16.529-10.535 23-18Z" style="opacity:1"/><path fill="#899a64" d="M412.5 251.5c-1.885 1.811-4.219 2.978-7 3.5-1.247 1.494-1.247 2.994 0 4.5l6-2c1.131 1.574 1.298 3.241.5 5a13.92 13.92 0 0 0-4 3c-.688.832-.521 1.498.5 2 2.895-.261 5.895.072 9 1-4.987 2.438-10.321 4.105-16 5-3.812-.824-7.812-1.324-12-1.5a4.934 4.934 0 0 1 3-.5c.277-2.948-.056-5.781-1-8.5 2.667-.667 2.667-1.333 0-2 3.242-.283 3.576-1.117 1-2.5a3.647 3.647 0 0 1 1-1.5c-8.66-.5-17.327-.666-26-.5h-7c-4.202.317-8.202-.017-12-1 17.003.167 34.003 0 51-.5a186.061 186.061 0 0 0 13-3.5Z" style="opacity:1"/><path fill="#11130c" d="M256.5 256.5h12a18.473 18.473 0 0 0 2 3.5l-2 1a59.972 59.972 0 0 0 3 12.5h-15c.28-6.151.28-11.818 0-17Z" style="opacity:1"/><path fill="#2a2e1d" d="M289.5 256.5c2.82-.252 5.486.248 8 1.5l-2 1c.488 38.141 1.154 76.808 2 116a67.721 67.721 0 0 1-2 15.5c.029 1.529.696 2.696 2 3.5-.916.278-1.582.778-2 1.5l-6-2c.039-46.238.039-91.905 0-137Z" style="opacity:1"/><path fill="#414a2e" d="M316.5 256.5h13c-.643 5.169-1.31 10.335-2 15.5 2.865.183 5.531.683 8 1.5h-18c-.709-.904-1.709-1.237-3-1a53.78 53.78 0 0 1 2-16Z" style="opacity:1"/><path fill="#667447" d="M360.5 256.5h7c.359 2.266-.308 4.099-2 5.5l2 1c-.051 21.992-.051 43.992 0 66a27.07 27.07 0 0 1-2 4.5c.552 1.503.552 3.169 0 5a86.223 86.223 0 0 0-3.5-12l-1-53c-1.355-4.248-1.855-8.414-1.5-12.5a9.568 9.568 0 0 1 3-3c-.916-.278-1.582-.778-2-1.5Z" style="opacity:1"/><path fill="#717f51" d="M367.5 256.5c8.673-.166 17.34 0 26 .5a3.647 3.647 0 0 0-1 1.5c2.576 1.383 2.242 2.217-1 2.5 2.667.667 2.667 1.333 0 2 .944 2.719 1.277 5.552 1 8.5a4.934 4.934 0 0 0-3 .5c4.188.176 8.188.676 12 1.5h-25a529.493 529.493 0 0 0 1 46c1.804 12.957 8.137 22.957 19 30-2.429-.085-4.429-1.085-6-3-1.122 1.544-.789 2.877 1 4-1.973.831-3.973.998-6 .5a78.453 78.453 0 0 0 4 5.5l-4 3c2.657 2.068 5.657 3.401 9 4-1.211 1.22-1.211 2.387 0 3.5a52.016 52.016 0 0 0 10 1.5v2c-17.872-3.217-30.872-12.883-39-29v-3c.552-1.831.552-3.497 0-5a27.07 27.07 0 0 0 2-4.5c-.051-22.008-.051-44.008 0-66l-2-1c1.692-1.401 2.359-3.234 2-5.5Z" style="opacity:1"/><path fill="#4f5a38" d="M329.5 256.5c6.009-.166 12.009.001 18 .5-1.58 5.697-1.247 11.197 1 16.5h-13c-2.469-.817-5.135-1.317-8-1.5.69-5.165 1.357-10.331 2-15.5Z" style="opacity:1"/><path fill="#232719" d="M268.5 256.5h21c.039 45.095.039 90.762 0 137l6 2a4.934 4.934 0 0 1 3 .5c-2.604.39-4.938 1.224-7 2.5-9.251 2.739-11.417 8.406-6.5 17 1.488 1.66 3.321 2.66 5.5 3 2.61.657 4.943 1.991 7 4-1.283 2.818-1.283 5.652 0 8.5-.259 1.261-.926 2.261-2 3a81.316 81.316 0 0 1 3 2.5c-10.745 1.775-19.745-1.225-27-9a23.72 23.72 0 0 0 5-4l1-15a136.281 136.281 0 0 1 0-18.5c-1.73-1.852-2.896-1.686-3.5.5-.278-.916-.778-1.582-1.5-2a26.707 26.707 0 0 1 7-5h5v-110h-13a59.972 59.972 0 0 1-3-12.5l2-1a18.473 18.473 0 0 1-2-3.5Z" style="opacity:1"/><path fill="#636e49" d="M299.5 255.5h49c3.798.983 7.798 1.317 12 1 .418.722 1.084 1.222 2 1.5a9.568 9.568 0 0 0-3 3c-.355 4.086.145 8.252 1.5 12.5l1 53a86.223 86.223 0 0 1 3.5 12v3c-3.247-5.857-5.414-12.19-6.5-19-.5-15.997-.667-31.997-.5-48-3.125-.979-6.458-1.313-10-1-2.247-5.303-2.58-10.803-1-16.5a162.597 162.597 0 0 0-18-.5h-13c-5.858.322-11.525-.011-17-1Z" style="opacity:1"/><path fill="#9e9e9e" d="M98.5 273.5h24a784.68 784.68 0 0 1-1 56v-55c-7.852.325-15.518-.008-23-1Z" style="opacity:1"/><path fill="#acaea6" d="M317.5 273.5h31c3.542-.313 6.875.021 10 1h-56v107a2916.974 2916.974 0 0 1-1-108h16Z" style="opacity:1"/><path fill="#343826" d="M105.5 255.5h194c5.475.989 11.142 1.322 17 1a53.78 53.78 0 0 0-2 16c1.291-.237 2.291.096 3 1h-16c-.332 36.171.002 72.171 1 108l3 2c-1.667 2.761-2.667 5.928-3 9.5 1.325 5.932 1.325 11.766 0 17.5.533-7.802-3.133-11.802-11-12 2.062-1.276 4.396-2.11 7-2.5a4.934 4.934 0 0 0-3-.5c.418-.722 1.084-1.222 2-1.5-1.304-.804-1.971-1.971-2-3.5a67.721 67.721 0 0 0 2-15.5c-.846-39.192-1.512-77.859-2-116l2-1c-2.514-1.252-5.18-1.752-8-1.5h-33a5701.237 5701.237 0 0 1-151-1Z" style="opacity:1"/><path fill="#c9d1ba" d="M399.5 273.5c-7.148.992-14.481 1.325-22 1v45a529.493 529.493 0 0 1-1-46h23Z" style="opacity:1"/><path fill="#4b4d46" d="M221.5 274.5c11.488-.995 23.155-1.328 35-1h28v110h-5a19.602 19.602 0 0 1 3.5-2c.5-35.665.667-71.332.5-107h-62Z" style="opacity:1"/><path fill="#9aad6e" d="M436.5 335.5c.433 5.333.933 10.666 1.5 16 2.978.481 4.811 2.147 5.5 5-5.426-5.281-10.926-5.281-16.5 0-3.513 6.964-2.013 12.631 4.5 17 2.131.814 4.464 1.314 7 1.5l-7 1c3.839 3.12 7.839 3.287 12 .5 1.432 2.919.432 4.252-3 4v3c2.962-.383 3.962.617 3 3l2 1a20.222 20.222 0 0 1 5-1c-2.465 2.337-5.465 3.837-9 4.5-10.686 1.993-19.853-.84-27.5-8.5-2.904-3.142-4.738-6.809-5.5-11-1.599.268-2.932-.066-4-1v-2a4.934 4.934 0 0 1 .5-3c.654 1.196 1.154 1.196 1.5 0-1.807-4.579-.473-7.912 4-10 .505-4.36 2.172-8.36 5-12 5.501-6.479 12.501-9.145 21-8Z" style="opacity:1"/><path fill="#fafcf5" d="M443.5 356.5c3.678 10.96-.322 16.627-12 17-6.513-4.369-8.013-10.036-4.5-17 5.574-5.281 11.074-5.281 16.5 0Z" style="opacity:1"/><path fill="#86975f" d="M415.5 343.5c-2.828 3.64-4.495 7.64-5 12-4.473 2.088-5.807 5.421-4 10-.346 1.196-.846 1.196-1.5 0a4.934 4.934 0 0 0-.5 3 52.016 52.016 0 0 1-10-1.5c-1.211-1.113-1.211-2.28 0-3.5-3.343-.599-6.343-1.932-9-4l4-3a78.453 78.453 0 0 1-4-5.5c2.027.498 4.027.331 6-.5-1.789-1.123-2.122-2.456-1-4 1.571 1.915 3.571 2.915 6 3a23.423 23.423 0 0 1 6 2.5c2 .667 4 .667 6 0 1.755-3.364 4.088-6.198 7-8.5Z" style="opacity:1"/><path fill="#f8f8f8" d="M58.5 364.5c10.488-1.013 14.988 3.654 13.5 14-2.919 5.525-7.419 7.358-13.5 5.5-5.135-3.055-6.968-7.555-5.5-13.5 1.36-2.523 3.193-4.523 5.5-6Z" style="opacity:1"/><path fill="#b1c77d" d="M436.5 335.5c20.707 3.035 29.541 15.035 26.5 36-2.235 6.724-6.401 11.724-12.5 15-1.699.12-3.365.454-5 1l-2-1c.962-2.383-.038-3.383-3-3v-3c3.432.252 4.432-1.081 3-4-4.161 2.787-8.161 2.62-12-.5l7-1c-2.536-.186-4.869-.686-7-1.5 11.678-.373 15.678-6.04 12-17-.689-2.853-2.522-4.519-5.5-5a645.706 645.706 0 0 1-1.5-16Z" style="opacity:1"/><path fill="#191b12" d="M272.5 388.5c.722.418 1.222 1.084 1.5 2 .604-2.186 1.77-2.352 3.5-.5a136.281 136.281 0 0 0 0 18.5l-1 15a23.72 23.72 0 0 1-5 4c-7.016-8.583-8.849-18.249-5.5-29 1.444-3.911 3.611-7.244 6.5-10Z" style="opacity:1"/><path fill="#373e28" d="M305.5 383.5c13.239 7.502 18.073 18.835 14.5 34-3.921 10.092-11.088 16.425-21.5 19a81.316 81.316 0 0 0-3-2.5c1.074-.739 1.741-1.739 2-3-1.283-2.848-1.283-5.682 0-8.5-2.057-2.009-4.39-3.343-7-4 6.396.809 10.396-1.858 12-8 1.325-5.734 1.325-11.568 0-17.5.333-3.572 1.333-6.739 3-9.5Z" style="opacity:1"/><path fill="#fafaf8" d="M291.5 398.5c7.867.198 11.533 4.198 11 12-1.604 6.142-5.604 8.809-12 8-2.179-.34-4.012-1.34-5.5-3-4.917-8.594-2.751-14.261 6.5-17Z" style="opacity:1"/><path fill="#090909" d="M41.5 410.5c6.757-.749 13.09.418 19 3.5l-3 5c-3.22.157-6.386-.343-9.5-1.5-4.804.133-6.47 2.467-5 7a235.117 235.117 0 0 0 12.5 7.5c5.616 5.086 6.45 10.919 2.5 17.5-1.8 1.817-3.966 2.984-6.5 3.5-5 .667-10 .667-15 0a9.457 9.457 0 0 1-2.5-1.5 16.25 16.25 0 0 1 0-8c4.817 2.767 9.984 3.601 15.5 2.5 2.667-2.667 2.667-5.333 0-8l-10-5c-8.497-8.344-7.83-15.844 2-22.5Z" style="opacity:1"/><path fill="#0b0b0b" d="M80.5 410.5a72.368 72.368 0 0 1 12 .5c2.347.712 4.347 1.879 6 3.5-1.002 2.01-2.002 4.01-3 6-12.333-5.688-19-1.688-20 12-.4 5.999 1.934 10.499 7 13.5 5.129.708 10.129.208 15-1.5a24.939 24.939 0 0 1-.5 7c-22.855 6.489-32.855-2.178-30-26 2.29-7.117 6.79-12.117 13.5-15Z" style="opacity:1"/><path fill="#878787" d="M109.5 411.5c-3.198-.536-5.865.131-8 2-.904-.709-1.237-1.709-1-3 3.213-.31 6.213.023 9 1Z" style="opacity:1"/><path fill="#848484" d="M149.5 411.5c2.855-1.303 5.855-1.303 9 0-.124.607-.457.94-1 1-2.448-.973-5.115-1.306-8-1Z" style="opacity:1"/><path fill="#0c0c0c" d="M352.5 410.5c3.35-.165 6.683.002 10 .5 3.136.315 5.803 1.482 8 3.5-1.002 2.01-2.002 4.01-3 6-4.136-1.947-8.47-2.447-13-1.5-2.687 3.303-2.021 5.969 2 8 6.373 2.054 11.206 5.888 14.5 11.5.9 7.035-1.934 11.869-8.5 14.5a64.218 64.218 0 0 1-16 0 9.454 9.454 0 0 1-2.5-1.5c-.818-2.727-.652-5.394.5-8 5.466 3.182 11.132 3.682 17 1.5 1.528-2.881.862-5.214-2-7-6.001-2.016-10.834-5.516-14.5-10.5-2.34-7.975.16-13.642 7.5-17Z" style="opacity:1"/><path fill="#0a0a0a" d="M426.5 410.5c6.428-.71 12.428.457 18 3.5-.457 2.759-1.957 4.593-4.5 5.5-3.412-1.366-6.912-1.866-10.5-1.5-3.432 2.367-3.765 5.034-1 8 6.621 2.042 11.787 5.875 15.5 11.5 2.166 7.499-.334 12.666-7.5 15.5a64.218 64.218 0 0 1-16 0 9.454 9.454 0 0 1-2.5-1.5 16.242 16.242 0 0 1 0-8c5.267 2.763 10.767 3.429 16.5 2 2.783-2.842 2.45-5.342-1-7.5-7.065-1.933-12.232-6.099-15.5-12.5-1.189-7.305 1.644-12.305 8.5-15Z" style="opacity:1"/><path fill="#0b0b0b" d="M109.5 411.5a543.858 543.858 0 0 1 7.5 32c2.51-10.703 5.01-21.37 7.5-32h10c2.489 10.626 4.989 21.293 7.5 32a1770.802 1770.802 0 0 1 7.5-32c2.885-.306 5.552.027 8 1a947.082 947.082 0 0 1-10 41 25.879 25.879 0 0 1-10-1 407.267 407.267 0 0 1-8-30 430.62 430.62 0 0 0-7 31h-11a876.17 876.17 0 0 0-10-40c2.135-1.869 4.802-2.536 8-2ZM388.5 410.5a31.116 31.116 0 0 1 11 1 1503.534 1503.534 0 0 1 15 41 25.879 25.879 0 0 1-10 1 81.802 81.802 0 0 0-2-10h-17l-2 10a25.879 25.879 0 0 1-10-1l15-42Z" style="opacity:1"/><path fill="#ececec" d="M399.5 435.5c-3.829.569-7.163-.098-10-2a84.52 84.52 0 0 1 4.5-15 101.073 101.073 0 0 1 5.5 17Z" style="opacity:1"/><path fill="#f5f5f5" d="M208.5 428.5c12.139.28 15.972 5.946 11.5 17-5.333 4-10.667 4-16 0-4.242-7.226-2.742-12.893 4.5-17Z" style="opacity:1"/><path fill="#5f5f5f" d="M389.5 433.5c2.837 1.902 6.171 2.569 10 2-3.462.982-7.129 1.315-11 1-.237-1.291.096-2.291 1-3Z" style="opacity:1"/></svg>